<?xml version="1.0" encoding="utf-8" standalone="no"?>
<!DOCTYPE svg PUBLIC "-//W3C//DTD SVG 1.1//EN"
  "http://www.w3.org/Graphics/SVG/1.1/DTD/svg11.dtd">
<!-- Created with matplotlib (https://matplotlib.org/) -->
<svg height="288pt" version="1.1" viewBox="0 0 432 288" width="432pt" xmlns="http://www.w3.org/2000/svg" xmlns:xlink="http://www.w3.org/1999/xlink">
 <defs>
  <style type="text/css">
*{stroke-linecap:butt;stroke-linejoin:round;}
  </style>
 </defs>
 <g id="figure_1">
  <g id="patch_1">
   <path d="M 0 288 
L 432 288 
L 432 0 
L 0 0 
z
" style="fill:#ffffff;"/>
  </g>
  <g id="axes_1">
   <g id="patch_2">
    <path d="M 43.2 201.6 
L 302.4 201.6 
L 302.4 43.2 
L 43.2 43.2 
z
" style="fill:#ffffff;"/>
   </g>
   <g id="patch_3">
    <path clip-path="url(#pb2ccb05c41)" d="M 47.25 201.6 
L 55.35 201.6 
L 55.35 178.996435 
L 47.25 178.996435 
z
" style="fill:#9458a2;"/>
   </g>
   <g id="patch_4">
    <path clip-path="url(#pb2ccb05c41)" d="M 63.45 201.6 
L 71.55 201.6 
L 71.55 182.704737 
L 63.45 182.704737 
z
" style="fill:#9458a2;"/>
   </g>
   <g id="patch_5">
    <path clip-path="url(#pb2ccb05c41)" d="M 79.65 201.6 
L 87.75 201.6 
L 87.75 195.744786 
L 79.65 195.744786 
z
" style="fill:#9458a2;"/>
   </g>
   <g id="patch_6">
    <path clip-path="url(#pb2ccb05c41)" d="M 95.85 201.6 
L 103.95 201.6 
L 103.95 195.305645 
L 95.85 195.305645 
z
" style="fill:#9458a2;"/>
   </g>
   <g id="patch_7">
    <path clip-path="url(#pb2ccb05c41)" d="M 112.05 201.6 
L 120.15 201.6 
L 120.15 183.034093 
L 112.05 183.034093 
z
" style="fill:#9458a2;"/>
   </g>
   <g id="patch_8">
    <path clip-path="url(#pb2ccb05c41)" d="M 128.25 201.6 
L 136.35 201.6 
L 136.35 198.306442 
L 128.25 198.306442 
z
" style="fill:#9458a2;"/>
   </g>
   <g id="patch_9">
    <path clip-path="url(#pb2ccb05c41)" d="M 144.45 201.6 
L 152.55 201.6 
L 152.55 198.013682 
L 144.45 198.013682 
z
" style="fill:#9458a2;"/>
   </g>
   <g id="patch_10">
    <path clip-path="url(#pb2ccb05c41)" d="M 160.65 201.6 
L 168.75 201.6 
L 168.75 200.294775 
L 160.65 200.294775 
z
" style="fill:#9458a2;"/>
   </g>
   <g id="patch_11">
    <path clip-path="url(#pb2ccb05c41)" d="M 176.85 201.6 
L 184.95 201.6 
L 184.95 135.301903 
L 176.85 135.301903 
z
" style="fill:#9458a2;"/>
   </g>
   <g id="patch_12">
    <path clip-path="url(#pb2ccb05c41)" d="M 193.05 201.6 
L 201.15 201.6 
L 201.15 134.094265 
L 193.05 134.094265 
z
" style="fill:#9458a2;"/>
   </g>
   <g id="patch_13">
    <path clip-path="url(#pb2ccb05c41)" d="M 209.25 201.6 
L 217.35 201.6 
L 217.35 156.197697 
L 209.25 156.197697 
z
" style="fill:#9458a2;"/>
   </g>
   <g id="patch_14">
    <path clip-path="url(#pb2ccb05c41)" d="M 225.45 201.6 
L 233.55 201.6 
L 233.55 171.506641 
L 225.45 171.506641 
z
" style="fill:#9458a2;"/>
   </g>
   <g id="patch_15">
    <path clip-path="url(#pb2ccb05c41)" d="M 241.65 201.6 
L 249.75 201.6 
L 249.75 162.040712 
L 241.65 162.040712 
z
" style="fill:#9458a2;"/>
   </g>
   <g id="patch_16">
    <path clip-path="url(#pb2ccb05c41)" d="M 257.85 201.6 
L 265.95 201.6 
L 265.95 197.928293 
L 257.85 197.928293 
z
" style="fill:#9458a2;"/>
   </g>
   <g id="patch_17">
    <path clip-path="url(#pb2ccb05c41)" d="M 274.05 201.6 
L 282.15 201.6 
L 282.15 197.50135 
L 274.05 197.50135 
z
" style="fill:#9458a2;"/>
   </g>
   <g id="patch_18">
    <path clip-path="url(#pb2ccb05c41)" d="M 290.25 201.6 
L 298.35 201.6 
L 298.35 197.403763 
L 290.25 197.403763 
z
" style="fill:#9458a2;"/>
   </g>
   <g id="patch_19">
    <path clip-path="url(#pb2ccb05c41)" d="M 47.25 178.996435 
L 55.35 178.996435 
L 55.35 171.262674 
L 47.25 171.262674 
z
" style="fill:#ff8000;"/>
   </g>
   <g id="patch_20">
    <path clip-path="url(#pb2ccb05c41)" d="M 63.45 182.704737 
L 71.55 182.704737 
L 71.55 161.943125 
L 63.45 161.943125 
z
" style="fill:#ff8000;"/>
   </g>
   <g id="patch_21">
    <path clip-path="url(#pb2ccb05c41)" d="M 79.65 195.744786 
L 87.75 195.744786 
L 87.75 175.91025 
L 79.65 175.91025 
z
" style="fill:#ff8000;"/>
   </g>
   <g id="patch_22">
    <path clip-path="url(#pb2ccb05c41)" d="M 95.85 195.305645 
L 103.95 195.305645 
L 103.95 129.934623 
L 95.85 129.934623 
z
" style="fill:#ff8000;"/>
   </g>
   <g id="patch_23">
    <path clip-path="url(#pb2ccb05c41)" d="M 112.05 183.034093 
L 120.15 183.034093 
L 120.15 136.96088 
L 112.05 136.96088 
z
" style="fill:#ff8000;"/>
   </g>
   <g id="patch_24">
    <path clip-path="url(#pb2ccb05c41)" d="M 128.25 198.306442 
L 136.35 198.306442 
L 136.35 178.386517 
L 128.25 178.386517 
z
" style="fill:#ff8000;"/>
   </g>
   <g id="patch_25">
    <path clip-path="url(#pb2ccb05c41)" d="M 144.45 198.013682 
L 152.55 198.013682 
L 152.55 161.150232 
L 144.45 161.150232 
z
" style="fill:#ff8000;"/>
   </g>
   <g id="patch_26">
    <path clip-path="url(#pb2ccb05c41)" d="M 160.65 200.294775 
L 168.75 200.294775 
L 168.75 193.439296 
L 160.65 193.439296 
z
" style="fill:#ff8000;"/>
   </g>
   <g id="patch_27">
    <path clip-path="url(#pb2ccb05c41)" d="M 176.85 135.301903 
L 184.95 135.301903 
L 184.95 128.751382 
L 176.85 128.751382 
z
" style="fill:#ff8000;"/>
   </g>
   <g id="patch_28">
    <path clip-path="url(#pb2ccb05c41)" d="M 193.05 134.094265 
L 201.15 134.094265 
L 201.15 113.747397 
L 193.05 113.747397 
z
" style="fill:#ff8000;"/>
   </g>
   <g id="patch_29">
    <path clip-path="url(#pb2ccb05c41)" d="M 209.25 156.197697 
L 217.35 156.197697 
L 217.35 144.10912 
L 209.25 144.10912 
z
" style="fill:#ff8000;"/>
   </g>
   <g id="patch_30">
    <path clip-path="url(#pb2ccb05c41)" d="M 225.45 171.506641 
L 233.55 171.506641 
L 233.55 164.59017 
L 225.45 164.59017 
z
" style="fill:#ff8000;"/>
   </g>
   <g id="patch_31">
    <path clip-path="url(#pb2ccb05c41)" d="M 241.65 162.040712 
L 249.75 162.040712 
L 249.75 153.294486 
L 241.65 153.294486 
z
" style="fill:#ff8000;"/>
   </g>
   <g id="patch_32">
    <path clip-path="url(#pb2ccb05c41)" d="M 257.85 197.928293 
L 265.95 197.928293 
L 265.95 194.781116 
L 257.85 194.781116 
z
" style="fill:#ff8000;"/>
   </g>
   <g id="patch_33">
    <path clip-path="url(#pb2ccb05c41)" d="M 274.05 197.50135 
L 282.15 197.50135 
L 282.15 194.317578 
L 274.05 194.317578 
z
" style="fill:#ff8000;"/>
   </g>
   <g id="patch_34">
    <path clip-path="url(#pb2ccb05c41)" d="M 290.25 197.403763 
L 298.35 197.403763 
L 298.35 193.976024 
L 290.25 193.976024 
z
" style="fill:#ff8000;"/>
   </g>
   <g id="patch_35">
    <path clip-path="url(#pb2ccb05c41)" d="M 47.25 171.262674 
L 55.35 171.262674 
L 55.35 160.186561 
L 47.25 160.186561 
z
" style="fill:#f7f719;"/>
   </g>
   <g id="patch_36">
    <path clip-path="url(#pb2ccb05c41)" d="M 63.45 161.943125 
L 71.55 161.943125 
L 71.55 142.803895 
L 63.45 142.803895 
z
" style="fill:#f7f719;"/>
   </g>
   <g id="patch_37">
    <path clip-path="url(#pb2ccb05c41)" d="M 79.65 175.91025 
L 87.75 175.91025 
L 87.75 161.784546 
L 79.65 161.784546 
z
" style="fill:#f7f719;"/>
   </g>
   <g id="patch_38">
    <path clip-path="url(#pb2ccb05c41)" d="M 95.85 129.934623 
L 103.95 129.934623 
L 103.95 76.274029 
L 95.85 76.274029 
z
" style="fill:#f7f719;"/>
   </g>
   <g id="patch_39">
    <path clip-path="url(#pb2ccb05c41)" d="M 112.05 136.96088 
L 120.15 136.96088 
L 120.15 101.012307 
L 112.05 101.012307 
z
" style="fill:#f7f719;"/>
   </g>
   <g id="patch_40">
    <path clip-path="url(#pb2ccb05c41)" d="M 128.25 178.386517 
L 136.35 178.386517 
L 136.35 167.200619 
L 128.25 167.200619 
z
" style="fill:#f7f719;"/>
   </g>
   <g id="patch_41">
    <path clip-path="url(#pb2ccb05c41)" d="M 144.45 161.150232 
L 152.55 161.150232 
L 152.55 149.805755 
L 144.45 149.805755 
z
" style="fill:#f7f719;"/>
   </g>
   <g id="patch_42">
    <path clip-path="url(#pb2ccb05c41)" d="M 160.65 193.439296 
L 168.75 193.439296 
L 168.75 190.414102 
L 160.65 190.414102 
z
" style="fill:#f7f719;"/>
   </g>
   <g id="patch_43">
    <path clip-path="url(#pb2ccb05c41)" d="M 176.85 128.751382 
L 184.95 128.751382 
L 184.95 122.420432 
L 176.85 122.420432 
z
" style="fill:#f7f719;"/>
   </g>
   <g id="patch_44">
    <path clip-path="url(#pb2ccb05c41)" d="M 193.05 113.747397 
L 201.15 113.747397 
L 201.15 101.073299 
L 193.05 101.073299 
z
" style="fill:#f7f719;"/>
   </g>
   <g id="patch_45">
    <path clip-path="url(#pb2ccb05c41)" d="M 209.25 144.10912 
L 217.35 144.10912 
L 217.35 126.738652 
L 209.25 126.738652 
z
" style="fill:#f7f719;"/>
   </g>
   <g id="patch_46">
    <path clip-path="url(#pb2ccb05c41)" d="M 225.45 164.59017 
L 233.55 164.59017 
L 233.55 160.027982 
L 225.45 160.027982 
z
" style="fill:#f7f719;"/>
   </g>
   <g id="patch_47">
    <path clip-path="url(#pb2ccb05c41)" d="M 241.65 153.294486 
L 249.75 153.294486 
L 249.75 147.207504 
L 241.65 147.207504 
z
" style="fill:#f7f719;"/>
   </g>
   <g id="patch_48">
    <path clip-path="url(#pb2ccb05c41)" d="M 257.85 194.781116 
L 265.95 194.781116 
L 265.95 189.291853 
L 257.85 189.291853 
z
" style="fill:#f7f719;"/>
   </g>
   <g id="patch_49">
    <path clip-path="url(#pb2ccb05c41)" d="M 274.05 194.317578 
L 282.15 194.317578 
L 282.15 193.146535 
L 274.05 193.146535 
z
" style="fill:#f7f719;"/>
   </g>
   <g id="patch_50">
    <path clip-path="url(#pb2ccb05c41)" d="M 290.25 193.976024 
L 298.35 193.976024 
L 298.35 189.877374 
L 290.25 189.877374 
z
" style="fill:#f7f719;"/>
   </g>
   <g id="patch_51">
    <path clip-path="url(#pb2ccb05c41)" d="M 47.25 160.186561 
L 55.35 160.186561 
L 55.35 154.01419 
L 47.25 154.01419 
z
" style="fill:#eeb3cb;"/>
   </g>
   <g id="patch_52">
    <path clip-path="url(#pb2ccb05c41)" d="M 63.45 142.803895 
L 71.55 142.803895 
L 71.55 124.042814 
L 63.45 124.042814 
z
" style="fill:#eeb3cb;"/>
   </g>
   <g id="patch_53">
    <path clip-path="url(#pb2ccb05c41)" d="M 79.65 161.784546 
L 87.75 161.784546 
L 87.75 158.490989 
L 79.65 158.490989 
z
" style="fill:#eeb3cb;"/>
   </g>
   <g id="patch_54">
    <path clip-path="url(#pb2ccb05c41)" d="M 95.85 76.274029 
L 103.95 76.274029 
L 103.95 71.101923 
L 95.85 71.101923 
z
" style="fill:#eeb3cb;"/>
   </g>
   <g id="patch_55">
    <path clip-path="url(#pb2ccb05c41)" d="M 112.05 101.012307 
L 120.15 101.012307 
L 120.15 91.241419 
L 112.05 91.241419 
z
" style="fill:#eeb3cb;"/>
   </g>
   <g id="patch_56">
    <path clip-path="url(#pb2ccb05c41)" d="M 128.25 167.200619 
L 136.35 167.200619 
L 136.35 156.051316 
L 128.25 156.051316 
z
" style="fill:#eeb3cb;"/>
   </g>
   <g id="patch_57">
    <path clip-path="url(#pb2ccb05c41)" d="M 144.45 149.805755 
L 152.55 149.805755 
L 152.55 132.435287 
L 144.45 132.435287 
z
" style="fill:#eeb3cb;"/>
   </g>
   <g id="patch_58">
    <path clip-path="url(#pb2ccb05c41)" d="M 160.65 190.414102 
L 168.75 190.414102 
L 168.75 184.351516 
L 160.65 184.351516 
z
" style="fill:#eeb3cb;"/>
   </g>
   <g id="patch_59">
    <path clip-path="url(#pb2ccb05c41)" d="M 176.85 122.420432 
L 184.95 122.420432 
L 184.95 111.027162 
L 176.85 111.027162 
z
" style="fill:#eeb3cb;"/>
   </g>
   <g id="patch_60">
    <path clip-path="url(#pb2ccb05c41)" d="M 193.05 101.073299 
L 201.15 101.073299 
L 201.15 75.89588 
L 193.05 75.89588 
z
" style="fill:#eeb3cb;"/>
   </g>
   <g id="patch_61">
    <path clip-path="url(#pb2ccb05c41)" d="M 209.25 126.738652 
L 217.35 126.738652 
L 217.35 114.113348 
L 209.25 114.113348 
z
" style="fill:#eeb3cb;"/>
   </g>
   <g id="patch_62">
    <path clip-path="url(#pb2ccb05c41)" d="M 225.45 160.027982 
L 233.55 160.027982 
L 233.55 147.024528 
L 225.45 147.024528 
z
" style="fill:#eeb3cb;"/>
   </g>
   <g id="patch_63">
    <path clip-path="url(#pb2ccb05c41)" d="M 241.65 147.207504 
L 249.75 147.207504 
L 249.75 129.654061 
L 241.65 129.654061 
z
" style="fill:#eeb3cb;"/>
   </g>
   <g id="patch_64">
    <path clip-path="url(#pb2ccb05c41)" d="M 257.85 189.291853 
L 265.95 189.291853 
L 265.95 187.962231 
L 257.85 187.962231 
z
" style="fill:#eeb3cb;"/>
   </g>
   <g id="patch_65">
    <path clip-path="url(#pb2ccb05c41)" d="M 274.05 193.146535 
L 282.15 193.146535 
L 282.15 188.230595 
L 274.05 188.230595 
z
" style="fill:#eeb3cb;"/>
   </g>
   <g id="patch_66">
    <path clip-path="url(#pb2ccb05c41)" d="M 290.25 189.877374 
L 298.35 189.877374 
L 298.35 188.64534 
L 290.25 188.64534 
z
" style="fill:#eeb3cb;"/>
   </g>
   <g id="patch_67">
    <path clip-path="url(#pb2ccb05c41)" d="M 47.25 154.01419 
L 55.35 154.01419 
L 55.35 144.060326 
L 47.25 144.060326 
z
" style="fill:#9cd0de;"/>
   </g>
   <g id="patch_68">
    <path clip-path="url(#pb2ccb05c41)" d="M 63.45 124.042814 
L 71.55 124.042814 
L 71.55 107.160281 
L 63.45 107.160281 
z
" style="fill:#9cd0de;"/>
   </g>
   <g id="patch_69">
    <path clip-path="url(#pb2ccb05c41)" d="M 79.65 158.490989 
L 87.75 158.490989 
L 87.75 156.31968 
L 79.65 156.31968 
z
" style="fill:#9cd0de;"/>
   </g>
   <g id="patch_70">
    <path clip-path="url(#pb2ccb05c41)" d="M 95.85 71.101923 
L 103.95 71.101923 
L 103.95 68.162118 
L 95.85 68.162118 
z
" style="fill:#9cd0de;"/>
   </g>
   <g id="patch_71">
    <path clip-path="url(#pb2ccb05c41)" d="M 112.05 91.241419 
L 120.15 91.241419 
L 120.15 82.958731 
L 112.05 82.958731 
z
" style="fill:#9cd0de;"/>
   </g>
   <g id="patch_72">
    <path clip-path="url(#pb2ccb05c41)" d="M 128.25 156.051316 
L 136.35 156.051316 
L 136.35 155.051051 
L 128.25 155.051051 
z
" style="fill:#9cd0de;"/>
   </g>
   <g id="patch_73">
    <path clip-path="url(#pb2ccb05c41)" d="M 144.45 132.435287 
L 152.55 132.435287 
L 152.55 130.995881 
L 144.45 130.995881 
z
" style="fill:#9cd0de;"/>
   </g>
   <g id="patch_74">
    <path clip-path="url(#pb2ccb05c41)" d="M 160.65 184.351516 
L 168.75 184.351516 
L 168.75 183.7294 
L 160.65 183.7294 
z
" style="fill:#9cd0de;"/>
   </g>
   <g id="patch_75">
    <path clip-path="url(#pb2ccb05c41)" d="M 176.85 111.027162 
L 184.95 111.027162 
L 184.95 102.744474 
L 176.85 102.744474 
z
" style="fill:#9cd0de;"/>
   </g>
   <g id="patch_76">
    <path clip-path="url(#pb2ccb05c41)" d="M 193.05 75.89588 
L 201.15 75.89588 
L 201.15 67.271638 
L 193.05 67.271638 
z
" style="fill:#9cd0de;"/>
   </g>
   <g id="patch_77">
    <path clip-path="url(#pb2ccb05c41)" d="M 209.25 114.113348 
L 217.35 114.113348 
L 217.35 94.449588 
L 209.25 94.449588 
z
" style="fill:#9cd0de;"/>
   </g>
   <g id="patch_78">
    <path clip-path="url(#pb2ccb05c41)" d="M 225.45 147.024528 
L 233.55 147.024528 
L 233.55 142.242771 
L 225.45 142.242771 
z
" style="fill:#9cd0de;"/>
   </g>
   <g id="patch_79">
    <path clip-path="url(#pb2ccb05c41)" d="M 241.65 129.654061 
L 249.75 129.654061 
L 249.75 122.774185 
L 241.65 122.774185 
z
" style="fill:#9cd0de;"/>
   </g>
   <g id="patch_80">
    <path clip-path="url(#pb2ccb05c41)" d="M 257.85 187.962231 
L 265.95 187.962231 
L 265.95 186.7058 
L 257.85 186.7058 
z
" style="fill:#9cd0de;"/>
   </g>
   <g id="patch_81">
    <path clip-path="url(#pb2ccb05c41)" d="M 274.05 188.230595 
L 282.15 188.230595 
L 282.15 187.486495 
L 274.05 187.486495 
z
" style="fill:#9cd0de;"/>
   </g>
   <g id="patch_82">
    <path clip-path="url(#pb2ccb05c41)" d="M 290.25 188.64534 
L 298.35 188.64534 
L 298.35 187.498694 
L 290.25 187.498694 
z
" style="fill:#9cd0de;"/>
   </g>
   <g id="patch_83">
    <path clip-path="url(#pb2ccb05c41)" d="M 47.25 144.060326 
L 55.35 144.060326 
L 55.35 141.596257 
L 47.25 141.596257 
z
" style="fill:#cce70b;"/>
   </g>
   <g id="patch_84">
    <path clip-path="url(#pb2ccb05c41)" d="M 63.45 107.160281 
L 71.55 107.160281 
L 71.55 102.805466 
L 63.45 102.805466 
z
" style="fill:#cce70b;"/>
   </g>
   <g id="patch_85">
    <path clip-path="url(#pb2ccb05c41)" d="M 79.65 156.31968 
L 87.75 156.31968 
L 87.75 148.903076 
L 79.65 148.903076 
z
" style="fill:#cce70b;"/>
   </g>
   <g id="patch_86">
    <path clip-path="url(#pb2ccb05c41)" d="M 95.85 68.162118 
L 103.95 68.162118 
L 103.95 50.840444 
L 95.85 50.840444 
z
" style="fill:#cce70b;"/>
   </g>
   <g id="patch_87">
    <path clip-path="url(#pb2ccb05c41)" d="M 112.05 82.958731 
L 120.15 82.958731 
L 120.15 73.28543 
L 112.05 73.28543 
z
" style="fill:#cce70b;"/>
   </g>
   <g id="patch_88">
    <path clip-path="url(#pb2ccb05c41)" d="M 128.25 155.051051 
L 136.35 155.051051 
L 136.35 152.14784 
L 128.25 152.14784 
z
" style="fill:#cce70b;"/>
   </g>
   <g id="patch_89">
    <path clip-path="url(#pb2ccb05c41)" d="M 144.45 130.995881 
L 152.55 130.995881 
L 152.55 127.494951 
L 144.45 127.494951 
z
" style="fill:#cce70b;"/>
   </g>
   <g id="patch_90">
    <path clip-path="url(#pb2ccb05c41)" d="M 160.65 183.7294 
L 168.75 183.7294 
L 168.75 183.314655 
L 160.65 183.314655 
z
" style="fill:#cce70b;"/>
   </g>
   <g id="patch_91">
    <path clip-path="url(#pb2ccb05c41)" d="M 176.85 102.744474 
L 184.95 102.744474 
L 184.95 101.890589 
L 176.85 101.890589 
z
" style="fill:#cce70b;"/>
   </g>
   <g id="patch_92">
    <path clip-path="url(#pb2ccb05c41)" d="M 193.05 67.271638 
L 201.15 67.271638 
L 201.15 64.880759 
L 193.05 64.880759 
z
" style="fill:#cce70b;"/>
   </g>
   <g id="patch_93">
    <path clip-path="url(#pb2ccb05c41)" d="M 209.25 94.449588 
L 217.35 94.449588 
L 217.35 90.533914 
L 209.25 90.533914 
z
" style="fill:#cce70b;"/>
   </g>
   <g id="patch_94">
    <path clip-path="url(#pb2ccb05c41)" d="M 225.45 142.242771 
L 233.55 142.242771 
L 233.55 141.767034 
L 225.45 141.767034 
z
" style="fill:#cce70b;"/>
   </g>
   <g id="patch_95">
    <path clip-path="url(#pb2ccb05c41)" d="M 241.65 122.774185 
L 249.75 122.774185 
L 249.75 122.042283 
L 241.65 122.042283 
z
" style="fill:#cce70b;"/>
   </g>
   <g id="patch_96">
    <path clip-path="url(#pb2ccb05c41)" d="M 257.85 186.7058 
L 265.95 186.7058 
L 265.95 186.376444 
L 257.85 186.376444 
z
" style="fill:#cce70b;"/>
   </g>
   <g id="patch_97">
    <path clip-path="url(#pb2ccb05c41)" d="M 274.05 187.486495 
L 282.15 187.486495 
L 282.15 186.913172 
L 274.05 186.913172 
z
" style="fill:#cce70b;"/>
   </g>
   <g id="patch_98">
    <path clip-path="url(#pb2ccb05c41)" d="M 290.25 187.498694 
L 298.35 187.498694 
L 298.35 186.291056 
L 290.25 186.291056 
z
" style="fill:#cce70b;"/>
   </g>
   <g id="patch_99">
    <path clip-path="url(#pb2ccb05c41)" d="M 47.25 141.596257 
L 55.35 141.596257 
L 55.35 141.401084 
L 47.25 141.401084 
z
" style="fill:#beac83;"/>
   </g>
   <g id="patch_100">
    <path clip-path="url(#pb2ccb05c41)" d="M 63.45 102.805466 
L 71.55 102.805466 
L 71.55 102.659086 
L 63.45 102.659086 
z
" style="fill:#beac83;"/>
   </g>
   <g id="patch_101">
    <path clip-path="url(#pb2ccb05c41)" d="M 79.65 148.903076 
L 87.75 148.903076 
L 87.75 148.829886 
L 79.65 148.829886 
z
" style="fill:#beac83;"/>
   </g>
   <g id="patch_102">
    <path clip-path="url(#pb2ccb05c41)" d="M 95.85 50.840444 
L 103.95 50.840444 
L 103.95 50.742857 
L 95.85 50.742857 
z
" style="fill:#beac83;"/>
   </g>
   <g id="patch_103">
    <path clip-path="url(#pb2ccb05c41)" d="M 112.05 73.28543 
L 120.15 73.28543 
L 120.15 73.163446 
L 112.05 73.163446 
z
" style="fill:#beac83;"/>
   </g>
   <g id="patch_104">
    <path clip-path="url(#pb2ccb05c41)" d="M 128.25 152.14784 
L 136.35 152.14784 
L 136.35 152.135642 
L 128.25 152.135642 
z
" style="fill:#beac83;"/>
   </g>
   <g id="patch_105">
    <path clip-path="url(#pb2ccb05c41)" d="M 144.45 127.494951 
L 152.55 127.494951 
L 152.55 127.385166 
L 144.45 127.385166 
z
" style="fill:#beac83;"/>
   </g>
   <g id="patch_106">
    <path clip-path="url(#pb2ccb05c41)" d="M 160.65 201.6 
L 168.75 201.6 
L 168.75 201.6 
L 160.65 201.6 
z
" style="fill:#beac83;"/>
   </g>
   <g id="patch_107">
    <path clip-path="url(#pb2ccb05c41)" d="M 176.85 101.890589 
L 184.95 101.890589 
L 184.95 101.756407 
L 176.85 101.756407 
z
" style="fill:#beac83;"/>
   </g>
   <g id="patch_108">
    <path clip-path="url(#pb2ccb05c41)" d="M 193.05 64.880759 
L 201.15 64.880759 
L 201.15 64.600196 
L 193.05 64.600196 
z
" style="fill:#beac83;"/>
   </g>
   <g id="patch_109">
    <path clip-path="url(#pb2ccb05c41)" d="M 209.25 90.533914 
L 217.35 90.533914 
L 217.35 90.448525 
L 209.25 90.448525 
z
" style="fill:#beac83;"/>
   </g>
   <g id="patch_110">
    <path clip-path="url(#pb2ccb05c41)" d="M 225.45 141.767034 
L 233.55 141.767034 
L 233.55 141.657249 
L 225.45 141.657249 
z
" style="fill:#beac83;"/>
   </g>
   <g id="patch_111">
    <path clip-path="url(#pb2ccb05c41)" d="M 241.65 122.042283 
L 249.75 122.042283 
L 249.75 121.99349 
L 241.65 121.99349 
z
" style="fill:#beac83;"/>
   </g>
   <g id="patch_112">
    <path clip-path="url(#pb2ccb05c41)" d="M 257.85 186.376444 
L 265.95 186.376444 
L 265.95 186.364246 
L 257.85 186.364246 
z
" style="fill:#beac83;"/>
   </g>
   <g id="patch_113">
    <path clip-path="url(#pb2ccb05c41)" d="M 274.05 186.913172 
L 282.15 186.913172 
L 282.15 186.900974 
L 274.05 186.900974 
z
" style="fill:#beac83;"/>
   </g>
   <g id="patch_114">
    <path clip-path="url(#pb2ccb05c41)" d="M 290.25 186.291056 
L 298.35 186.291056 
L 298.35 186.254461 
L 290.25 186.254461 
z
" style="fill:#beac83;"/>
   </g>
   <g id="matplotlib.axis_1">
    <g id="xtick_1">
     <g id="line2d_1"/>
     <g id="text_1">
      <!-- 3.1-MT -->
      <defs>
       <path d="M 40.578125 39.3125 
Q 47.65625 37.796875 51.625 33 
Q 55.609375 28.21875 55.609375 21.1875 
Q 55.609375 10.40625 48.1875 4.484375 
Q 40.765625 -1.421875 27.09375 -1.421875 
Q 22.515625 -1.421875 17.65625 -0.515625 
Q 12.796875 0.390625 7.625 2.203125 
L 7.625 11.71875 
Q 11.71875 9.328125 16.59375 8.109375 
Q 21.484375 6.890625 26.8125 6.890625 
Q 36.078125 6.890625 40.9375 10.546875 
Q 45.796875 14.203125 45.796875 21.1875 
Q 45.796875 27.640625 41.28125 31.265625 
Q 36.765625 34.90625 28.71875 34.90625 
L 20.21875 34.90625 
L 20.21875 43.015625 
L 29.109375 43.015625 
Q 36.375 43.015625 40.234375 45.921875 
Q 44.09375 48.828125 44.09375 54.296875 
Q 44.09375 59.90625 40.109375 62.90625 
Q 36.140625 65.921875 28.71875 65.921875 
Q 24.65625 65.921875 20.015625 65.03125 
Q 15.375 64.15625 9.8125 62.3125 
L 9.8125 71.09375 
Q 15.4375 72.65625 20.34375 73.4375 
Q 25.25 74.21875 29.59375 74.21875 
Q 40.828125 74.21875 47.359375 69.109375 
Q 53.90625 64.015625 53.90625 55.328125 
Q 53.90625 49.265625 50.4375 45.09375 
Q 46.96875 40.921875 40.578125 39.3125 
z
" id="DejaVuSans-51"/>
       <path d="M 10.6875 12.40625 
L 21 12.40625 
L 21 0 
L 10.6875 0 
z
" id="DejaVuSans-46"/>
       <path d="M 12.40625 8.296875 
L 28.515625 8.296875 
L 28.515625 63.921875 
L 10.984375 60.40625 
L 10.984375 69.390625 
L 28.421875 72.90625 
L 38.28125 72.90625 
L 38.28125 8.296875 
L 54.390625 8.296875 
L 54.390625 0 
L 12.40625 0 
z
" id="DejaVuSans-49"/>
       <path d="M 4.890625 31.390625 
L 31.203125 31.390625 
L 31.203125 23.390625 
L 4.890625 23.390625 
z
" id="DejaVuSans-45"/>
       <path d="M 9.8125 72.90625 
L 24.515625 72.90625 
L 43.109375 23.296875 
L 61.8125 72.90625 
L 76.515625 72.90625 
L 76.515625 0 
L 66.890625 0 
L 66.890625 64.015625 
L 48.09375 14.015625 
L 38.1875 14.015625 
L 19.390625 64.015625 
L 19.390625 0 
L 9.8125 0 
z
" id="DejaVuSans-77"/>
       <path d="M -0.296875 72.90625 
L 61.375 72.90625 
L 61.375 64.59375 
L 35.5 64.59375 
L 35.5 0 
L 25.59375 0 
L 25.59375 64.59375 
L -0.296875 64.59375 
z
" id="DejaVuSans-84"/>
      </defs>
      <g transform="translate(26.741194 224.063102)rotate(-30)scale(0.08 -0.08)">
       <use xlink:href="#DejaVuSans-51"/>
       <use x="63.623047" xlink:href="#DejaVuSans-46"/>
       <use x="95.410156" xlink:href="#DejaVuSans-49"/>
       <use x="159.033203" xlink:href="#DejaVuSans-45"/>
       <use x="195.117188" xlink:href="#DejaVuSans-77"/>
       <use x="281.396484" xlink:href="#DejaVuSans-84"/>
      </g>
     </g>
    </g>
    <g id="xtick_2">
     <g id="line2d_2"/>
     <g id="text_2">
      <!-- 4.1-Trm -->
      <defs>
       <path d="M 37.796875 64.3125 
L 12.890625 25.390625 
L 37.796875 25.390625 
z
M 35.203125 72.90625 
L 47.609375 72.90625 
L 47.609375 25.390625 
L 58.015625 25.390625 
L 58.015625 17.1875 
L 47.609375 17.1875 
L 47.609375 0 
L 37.796875 0 
L 37.796875 17.1875 
L 4.890625 17.1875 
L 4.890625 26.703125 
z
" id="DejaVuSans-52"/>
       <path d="M 41.109375 46.296875 
Q 39.59375 47.171875 37.8125 47.578125 
Q 36.03125 48 33.890625 48 
Q 26.265625 48 22.1875 43.046875 
Q 18.109375 38.09375 18.109375 28.8125 
L 18.109375 0 
L 9.078125 0 
L 9.078125 54.6875 
L 18.109375 54.6875 
L 18.109375 46.1875 
Q 20.953125 51.171875 25.484375 53.578125 
Q 30.03125 56 36.53125 56 
Q 37.453125 56 38.578125 55.875 
Q 39.703125 55.765625 41.0625 55.515625 
z
" id="DejaVuSans-114"/>
       <path d="M 52 44.1875 
Q 55.375 50.25 60.0625 53.125 
Q 64.75 56 71.09375 56 
Q 79.640625 56 84.28125 50.015625 
Q 88.921875 44.046875 88.921875 33.015625 
L 88.921875 0 
L 79.890625 0 
L 79.890625 32.71875 
Q 79.890625 40.578125 77.09375 44.375 
Q 74.3125 48.1875 68.609375 48.1875 
Q 61.625 48.1875 57.5625 43.546875 
Q 53.515625 38.921875 53.515625 30.90625 
L 53.515625 0 
L 44.484375 0 
L 44.484375 32.71875 
Q 44.484375 40.625 41.703125 44.40625 
Q 38.921875 48.1875 33.109375 48.1875 
Q 26.21875 48.1875 22.15625 43.53125 
Q 18.109375 38.875 18.109375 30.90625 
L 18.109375 0 
L 9.078125 0 
L 9.078125 54.6875 
L 18.109375 54.6875 
L 18.109375 46.1875 
Q 21.1875 51.21875 25.484375 53.609375 
Q 29.78125 56 35.6875 56 
Q 41.65625 56 45.828125 52.96875 
Q 50 49.953125 52 44.1875 
z
" id="DejaVuSans-109"/>
      </defs>
      <g transform="translate(41.097642 225.127477)rotate(-30)scale(0.08 -0.08)">
       <use xlink:href="#DejaVuSans-52"/>
       <use x="63.623047" xlink:href="#DejaVuSans-46"/>
       <use x="95.410156" xlink:href="#DejaVuSans-49"/>
       <use x="159.033203" xlink:href="#DejaVuSans-45"/>
       <use x="185.992188" xlink:href="#DejaVuSans-84"/>
       <use x="232.326172" xlink:href="#DejaVuSans-114"/>
       <use x="271.689453" xlink:href="#DejaVuSans-109"/>
      </g>
     </g>
    </g>
    <g id="xtick_3">
     <g id="line2d_3"/>
     <g id="text_3">
      <!-- 4.2-RPL32 -->
      <defs>
       <path d="M 19.1875 8.296875 
L 53.609375 8.296875 
L 53.609375 0 
L 7.328125 0 
L 7.328125 8.296875 
Q 12.9375 14.109375 22.625 23.890625 
Q 32.328125 33.6875 34.8125 36.53125 
Q 39.546875 41.84375 41.421875 45.53125 
Q 43.3125 49.21875 43.3125 52.78125 
Q 43.3125 58.59375 39.234375 62.25 
Q 35.15625 65.921875 28.609375 65.921875 
Q 23.96875 65.921875 18.8125 64.3125 
Q 13.671875 62.703125 7.8125 59.421875 
L 7.8125 69.390625 
Q 13.765625 71.78125 18.9375 73 
Q 24.125 74.21875 28.421875 74.21875 
Q 39.75 74.21875 46.484375 68.546875 
Q 53.21875 62.890625 53.21875 53.421875 
Q 53.21875 48.921875 51.53125 44.890625 
Q 49.859375 40.875 45.40625 35.40625 
Q 44.1875 33.984375 37.640625 27.21875 
Q 31.109375 20.453125 19.1875 8.296875 
z
" id="DejaVuSans-50"/>
       <path d="M 44.390625 34.1875 
Q 47.5625 33.109375 50.5625 29.59375 
Q 53.5625 26.078125 56.59375 19.921875 
L 66.609375 0 
L 56 0 
L 46.6875 18.703125 
Q 43.0625 26.03125 39.671875 28.421875 
Q 36.28125 30.8125 30.421875 30.8125 
L 19.671875 30.8125 
L 19.671875 0 
L 9.8125 0 
L 9.8125 72.90625 
L 32.078125 72.90625 
Q 44.578125 72.90625 50.734375 67.671875 
Q 56.890625 62.453125 56.890625 51.90625 
Q 56.890625 45.015625 53.6875 40.46875 
Q 50.484375 35.9375 44.390625 34.1875 
z
M 19.671875 64.796875 
L 19.671875 38.921875 
L 32.078125 38.921875 
Q 39.203125 38.921875 42.84375 42.21875 
Q 46.484375 45.515625 46.484375 51.90625 
Q 46.484375 58.296875 42.84375 61.546875 
Q 39.203125 64.796875 32.078125 64.796875 
z
" id="DejaVuSans-82"/>
       <path d="M 19.671875 64.796875 
L 19.671875 37.40625 
L 32.078125 37.40625 
Q 38.96875 37.40625 42.71875 40.96875 
Q 46.484375 44.53125 46.484375 51.125 
Q 46.484375 57.671875 42.71875 61.234375 
Q 38.96875 64.796875 32.078125 64.796875 
z
M 9.8125 72.90625 
L 32.078125 72.90625 
Q 44.34375 72.90625 50.609375 67.359375 
Q 56.890625 61.8125 56.890625 51.125 
Q 56.890625 40.328125 50.609375 34.8125 
Q 44.34375 29.296875 32.078125 29.296875 
L 19.671875 29.296875 
L 19.671875 0 
L 9.8125 0 
z
" id="DejaVuSans-80"/>
       <path d="M 9.8125 72.90625 
L 19.671875 72.90625 
L 19.671875 8.296875 
L 55.171875 8.296875 
L 55.171875 0 
L 9.8125 0 
z
" id="DejaVuSans-76"/>
      </defs>
      <g transform="translate(47.682595 230.678727)rotate(-30)scale(0.08 -0.08)">
       <use xlink:href="#DejaVuSans-52"/>
       <use x="63.623047" xlink:href="#DejaVuSans-46"/>
       <use x="95.410156" xlink:href="#DejaVuSans-50"/>
       <use x="159.033203" xlink:href="#DejaVuSans-45"/>
       <use x="195.117188" xlink:href="#DejaVuSans-82"/>
       <use x="264.599609" xlink:href="#DejaVuSans-80"/>
       <use x="324.902344" xlink:href="#DejaVuSans-76"/>
       <use x="380.615234" xlink:href="#DejaVuSans-51"/>
       <use x="444.238281" xlink:href="#DejaVuSans-50"/>
      </g>
     </g>
    </g>
    <g id="xtick_4">
     <g id="line2d_4"/>
     <g id="text_4">
      <!-- 4.3-TCF7 -->
      <defs>
       <path d="M 64.40625 67.28125 
L 64.40625 56.890625 
Q 59.421875 61.53125 53.78125 63.8125 
Q 48.140625 66.109375 41.796875 66.109375 
Q 29.296875 66.109375 22.65625 58.46875 
Q 16.015625 50.828125 16.015625 36.375 
Q 16.015625 21.96875 22.65625 14.328125 
Q 29.296875 6.6875 41.796875 6.6875 
Q 48.140625 6.6875 53.78125 8.984375 
Q 59.421875 11.28125 64.40625 15.921875 
L 64.40625 5.609375 
Q 59.234375 2.09375 53.4375 0.328125 
Q 47.65625 -1.421875 41.21875 -1.421875 
Q 24.65625 -1.421875 15.125 8.703125 
Q 5.609375 18.84375 5.609375 36.375 
Q 5.609375 53.953125 15.125 64.078125 
Q 24.65625 74.21875 41.21875 74.21875 
Q 47.75 74.21875 53.53125 72.484375 
Q 59.328125 70.75 64.40625 67.28125 
z
" id="DejaVuSans-67"/>
       <path d="M 9.8125 72.90625 
L 51.703125 72.90625 
L 51.703125 64.59375 
L 19.671875 64.59375 
L 19.671875 43.109375 
L 48.578125 43.109375 
L 48.578125 34.8125 
L 19.671875 34.8125 
L 19.671875 0 
L 9.8125 0 
z
" id="DejaVuSans-70"/>
       <path d="M 8.203125 72.90625 
L 55.078125 72.90625 
L 55.078125 68.703125 
L 28.609375 0 
L 18.3125 0 
L 43.21875 64.59375 
L 8.203125 64.59375 
z
" id="DejaVuSans-55"/>
      </defs>
      <g transform="translate(69.127462 227.650602)rotate(-30)scale(0.08 -0.08)">
       <use xlink:href="#DejaVuSans-52"/>
       <use x="63.623047" xlink:href="#DejaVuSans-46"/>
       <use x="95.410156" xlink:href="#DejaVuSans-51"/>
       <use x="159.033203" xlink:href="#DejaVuSans-45"/>
       <use x="185.992188" xlink:href="#DejaVuSans-84"/>
       <use x="241.201172" xlink:href="#DejaVuSans-67"/>
       <use x="311.025391" xlink:href="#DejaVuSans-70"/>
       <use x="368.544922" xlink:href="#DejaVuSans-55"/>
      </g>
     </g>
    </g>
    <g id="xtick_5">
     <g id="line2d_5"/>
     <g id="text_5">
      <!-- 4.4-FOS -->
      <defs>
       <path d="M 39.40625 66.21875 
Q 28.65625 66.21875 22.328125 58.203125 
Q 16.015625 50.203125 16.015625 36.375 
Q 16.015625 22.609375 22.328125 14.59375 
Q 28.65625 6.59375 39.40625 6.59375 
Q 50.140625 6.59375 56.421875 14.59375 
Q 62.703125 22.609375 62.703125 36.375 
Q 62.703125 50.203125 56.421875 58.203125 
Q 50.140625 66.21875 39.40625 66.21875 
z
M 39.40625 74.21875 
Q 54.734375 74.21875 63.90625 63.9375 
Q 73.09375 53.65625 73.09375 36.375 
Q 73.09375 19.140625 63.90625 8.859375 
Q 54.734375 -1.421875 39.40625 -1.421875 
Q 24.03125 -1.421875 14.8125 8.828125 
Q 5.609375 19.09375 5.609375 36.375 
Q 5.609375 53.65625 14.8125 63.9375 
Q 24.03125 74.21875 39.40625 74.21875 
z
" id="DejaVuSans-79"/>
       <path d="M 53.515625 70.515625 
L 53.515625 60.890625 
Q 47.90625 63.578125 42.921875 64.890625 
Q 37.9375 66.21875 33.296875 66.21875 
Q 25.25 66.21875 20.875 63.09375 
Q 16.5 59.96875 16.5 54.203125 
Q 16.5 49.359375 19.40625 46.890625 
Q 22.3125 44.4375 30.421875 42.921875 
L 36.375 41.703125 
Q 47.40625 39.59375 52.65625 34.296875 
Q 57.90625 29 57.90625 20.125 
Q 57.90625 9.515625 50.796875 4.046875 
Q 43.703125 -1.421875 29.984375 -1.421875 
Q 24.8125 -1.421875 18.96875 -0.25 
Q 13.140625 0.921875 6.890625 3.21875 
L 6.890625 13.375 
Q 12.890625 10.015625 18.65625 8.296875 
Q 24.421875 6.59375 29.984375 6.59375 
Q 38.421875 6.59375 43.015625 9.90625 
Q 47.609375 13.234375 47.609375 19.390625 
Q 47.609375 24.75 44.3125 27.78125 
Q 41.015625 30.8125 33.5 32.328125 
L 27.484375 33.5 
Q 16.453125 35.6875 11.515625 40.375 
Q 6.59375 45.0625 6.59375 53.421875 
Q 6.59375 63.09375 13.40625 68.65625 
Q 20.21875 74.21875 32.171875 74.21875 
Q 37.3125 74.21875 42.625 73.28125 
Q 47.953125 72.359375 53.515625 70.515625 
z
" id="DejaVuSans-83"/>
      </defs>
      <g transform="translate(87.91363 226.157477)rotate(-30)scale(0.08 -0.08)">
       <use xlink:href="#DejaVuSans-52"/>
       <use x="63.623047" xlink:href="#DejaVuSans-46"/>
       <use x="95.410156" xlink:href="#DejaVuSans-52"/>
       <use x="159.033203" xlink:href="#DejaVuSans-45"/>
       <use x="195.117188" xlink:href="#DejaVuSans-70"/>
       <use x="252.636719" xlink:href="#DejaVuSans-79"/>
       <use x="331.347656" xlink:href="#DejaVuSans-83"/>
      </g>
     </g>
    </g>
    <g id="xtick_6">
     <g id="line2d_6"/>
     <g id="text_6">
      <!-- 4.5-IL6ST -->
      <defs>
       <path d="M 10.796875 72.90625 
L 49.515625 72.90625 
L 49.515625 64.59375 
L 19.828125 64.59375 
L 19.828125 46.734375 
Q 21.96875 47.46875 24.109375 47.828125 
Q 26.265625 48.1875 28.421875 48.1875 
Q 40.625 48.1875 47.75 41.5 
Q 54.890625 34.8125 54.890625 23.390625 
Q 54.890625 11.625 47.5625 5.09375 
Q 40.234375 -1.421875 26.90625 -1.421875 
Q 22.3125 -1.421875 17.546875 -0.640625 
Q 12.796875 0.140625 7.71875 1.703125 
L 7.71875 11.625 
Q 12.109375 9.234375 16.796875 8.0625 
Q 21.484375 6.890625 26.703125 6.890625 
Q 35.15625 6.890625 40.078125 11.328125 
Q 45.015625 15.765625 45.015625 23.390625 
Q 45.015625 31 40.078125 35.4375 
Q 35.15625 39.890625 26.703125 39.890625 
Q 22.75 39.890625 18.8125 39.015625 
Q 14.890625 38.140625 10.796875 36.28125 
z
" id="DejaVuSans-53"/>
       <path d="M 9.8125 72.90625 
L 19.671875 72.90625 
L 19.671875 0 
L 9.8125 0 
z
" id="DejaVuSans-73"/>
       <path d="M 33.015625 40.375 
Q 26.375 40.375 22.484375 35.828125 
Q 18.609375 31.296875 18.609375 23.390625 
Q 18.609375 15.53125 22.484375 10.953125 
Q 26.375 6.390625 33.015625 6.390625 
Q 39.65625 6.390625 43.53125 10.953125 
Q 47.40625 15.53125 47.40625 23.390625 
Q 47.40625 31.296875 43.53125 35.828125 
Q 39.65625 40.375 33.015625 40.375 
z
M 52.59375 71.296875 
L 52.59375 62.3125 
Q 48.875 64.0625 45.09375 64.984375 
Q 41.3125 65.921875 37.59375 65.921875 
Q 27.828125 65.921875 22.671875 59.328125 
Q 17.53125 52.734375 16.796875 39.40625 
Q 19.671875 43.65625 24.015625 45.921875 
Q 28.375 48.1875 33.59375 48.1875 
Q 44.578125 48.1875 50.953125 41.515625 
Q 57.328125 34.859375 57.328125 23.390625 
Q 57.328125 12.15625 50.6875 5.359375 
Q 44.046875 -1.421875 33.015625 -1.421875 
Q 20.359375 -1.421875 13.671875 8.265625 
Q 6.984375 17.96875 6.984375 36.375 
Q 6.984375 53.65625 15.1875 63.9375 
Q 23.390625 74.21875 37.203125 74.21875 
Q 40.921875 74.21875 44.703125 73.484375 
Q 48.484375 72.75 52.59375 71.296875 
z
" id="DejaVuSans-54"/>
      </defs>
      <g transform="translate(99.00841 229.104977)rotate(-30)scale(0.08 -0.08)">
       <use xlink:href="#DejaVuSans-52"/>
       <use x="63.623047" xlink:href="#DejaVuSans-46"/>
       <use x="95.410156" xlink:href="#DejaVuSans-53"/>
       <use x="159.033203" xlink:href="#DejaVuSans-45"/>
       <use x="195.117188" xlink:href="#DejaVuSans-73"/>
       <use x="224.609375" xlink:href="#DejaVuSans-76"/>
       <use x="280.322266" xlink:href="#DejaVuSans-54"/>
       <use x="343.945312" xlink:href="#DejaVuSans-83"/>
       <use x="407.421875" xlink:href="#DejaVuSans-84"/>
      </g>
     </g>
    </g>
    <g id="xtick_7">
     <g id="line2d_7"/>
     <g id="text_7">
      <!-- 4.6a-Treg -->
      <defs>
       <path d="M 34.28125 27.484375 
Q 23.390625 27.484375 19.1875 25 
Q 14.984375 22.515625 14.984375 16.5 
Q 14.984375 11.71875 18.140625 8.90625 
Q 21.296875 6.109375 26.703125 6.109375 
Q 34.1875 6.109375 38.703125 11.40625 
Q 43.21875 16.703125 43.21875 25.484375 
L 43.21875 27.484375 
z
M 52.203125 31.203125 
L 52.203125 0 
L 43.21875 0 
L 43.21875 8.296875 
Q 40.140625 3.328125 35.546875 0.953125 
Q 30.953125 -1.421875 24.3125 -1.421875 
Q 15.921875 -1.421875 10.953125 3.296875 
Q 6 8.015625 6 15.921875 
Q 6 25.140625 12.171875 29.828125 
Q 18.359375 34.515625 30.609375 34.515625 
L 43.21875 34.515625 
L 43.21875 35.40625 
Q 43.21875 41.609375 39.140625 45 
Q 35.0625 48.390625 27.6875 48.390625 
Q 23 48.390625 18.546875 47.265625 
Q 14.109375 46.140625 10.015625 43.890625 
L 10.015625 52.203125 
Q 14.9375 54.109375 19.578125 55.046875 
Q 24.21875 56 28.609375 56 
Q 40.484375 56 46.34375 49.84375 
Q 52.203125 43.703125 52.203125 31.203125 
z
" id="DejaVuSans-97"/>
       <path d="M 56.203125 29.59375 
L 56.203125 25.203125 
L 14.890625 25.203125 
Q 15.484375 15.921875 20.484375 11.0625 
Q 25.484375 6.203125 34.421875 6.203125 
Q 39.59375 6.203125 44.453125 7.46875 
Q 49.3125 8.734375 54.109375 11.28125 
L 54.109375 2.78125 
Q 49.265625 0.734375 44.1875 -0.34375 
Q 39.109375 -1.421875 33.890625 -1.421875 
Q 20.796875 -1.421875 13.15625 6.1875 
Q 5.515625 13.8125 5.515625 26.8125 
Q 5.515625 40.234375 12.765625 48.109375 
Q 20.015625 56 32.328125 56 
Q 43.359375 56 49.78125 48.890625 
Q 56.203125 41.796875 56.203125 29.59375 
z
M 47.21875 32.234375 
Q 47.125 39.59375 43.09375 43.984375 
Q 39.0625 48.390625 32.421875 48.390625 
Q 24.90625 48.390625 20.390625 44.140625 
Q 15.875 39.890625 15.1875 32.171875 
z
" id="DejaVuSans-101"/>
       <path d="M 45.40625 27.984375 
Q 45.40625 37.75 41.375 43.109375 
Q 37.359375 48.484375 30.078125 48.484375 
Q 22.859375 48.484375 18.828125 43.109375 
Q 14.796875 37.75 14.796875 27.984375 
Q 14.796875 18.265625 18.828125 12.890625 
Q 22.859375 7.515625 30.078125 7.515625 
Q 37.359375 7.515625 41.375 12.890625 
Q 45.40625 18.265625 45.40625 27.984375 
z
M 54.390625 6.78125 
Q 54.390625 -7.171875 48.1875 -13.984375 
Q 42 -20.796875 29.203125 -20.796875 
Q 24.46875 -20.796875 20.265625 -20.09375 
Q 16.0625 -19.390625 12.109375 -17.921875 
L 12.109375 -9.1875 
Q 16.0625 -11.328125 19.921875 -12.34375 
Q 23.78125 -13.375 27.78125 -13.375 
Q 36.625 -13.375 41.015625 -8.765625 
Q 45.40625 -4.15625 45.40625 5.171875 
L 45.40625 9.625 
Q 42.625 4.78125 38.28125 2.390625 
Q 33.9375 0 27.875 0 
Q 17.828125 0 11.671875 7.65625 
Q 5.515625 15.328125 5.515625 27.984375 
Q 5.515625 40.671875 11.671875 48.328125 
Q 17.828125 56 27.875 56 
Q 33.9375 56 38.28125 53.609375 
Q 42.625 51.21875 45.40625 46.390625 
L 45.40625 54.6875 
L 54.390625 54.6875 
z
" id="DejaVuSans-103"/>
      </defs>
      <g transform="translate(115.97376 228.663102)rotate(-30)scale(0.08 -0.08)">
       <use xlink:href="#DejaVuSans-52"/>
       <use x="63.623047" xlink:href="#DejaVuSans-46"/>
       <use x="95.410156" xlink:href="#DejaVuSans-54"/>
       <use x="159.033203" xlink:href="#DejaVuSans-97"/>
       <use x="220.3125" xlink:href="#DejaVuSans-45"/>
       <use x="247.271484" xlink:href="#DejaVuSans-84"/>
       <use x="293.605469" xlink:href="#DejaVuSans-114"/>
       <use x="332.46875" xlink:href="#DejaVuSans-101"/>
       <use x="393.992188" xlink:href="#DejaVuSans-103"/>
      </g>
     </g>
    </g>
    <g id="xtick_8">
     <g id="line2d_8"/>
     <g id="text_8">
      <!-- 4.6b-Treg -->
      <defs>
       <path d="M 48.6875 27.296875 
Q 48.6875 37.203125 44.609375 42.84375 
Q 40.53125 48.484375 33.40625 48.484375 
Q 26.265625 48.484375 22.1875 42.84375 
Q 18.109375 37.203125 18.109375 27.296875 
Q 18.109375 17.390625 22.1875 11.75 
Q 26.265625 6.109375 33.40625 6.109375 
Q 40.53125 6.109375 44.609375 11.75 
Q 48.6875 17.390625 48.6875 27.296875 
z
M 18.109375 46.390625 
Q 20.953125 51.265625 25.265625 53.625 
Q 29.59375 56 35.59375 56 
Q 45.5625 56 51.78125 48.09375 
Q 58.015625 40.1875 58.015625 27.296875 
Q 58.015625 14.40625 51.78125 6.484375 
Q 45.5625 -1.421875 35.59375 -1.421875 
Q 29.59375 -1.421875 25.265625 0.953125 
Q 20.953125 3.328125 18.109375 8.203125 
L 18.109375 0 
L 9.078125 0 
L 9.078125 75.984375 
L 18.109375 75.984375 
z
" id="DejaVuSans-98"/>
      </defs>
      <g transform="translate(132.021123 228.751227)rotate(-30)scale(0.08 -0.08)">
       <use xlink:href="#DejaVuSans-52"/>
       <use x="63.623047" xlink:href="#DejaVuSans-46"/>
       <use x="95.410156" xlink:href="#DejaVuSans-54"/>
       <use x="159.033203" xlink:href="#DejaVuSans-98"/>
       <use x="222.509766" xlink:href="#DejaVuSans-45"/>
       <use x="249.46875" xlink:href="#DejaVuSans-84"/>
       <use x="295.802734" xlink:href="#DejaVuSans-114"/>
       <use x="334.666016" xlink:href="#DejaVuSans-101"/>
       <use x="396.189453" xlink:href="#DejaVuSans-103"/>
      </g>
     </g>
    </g>
    <g id="xtick_9">
     <g id="line2d_9"/>
     <g id="text_9">
      <!-- 8.1-Teff -->
      <defs>
       <path d="M 31.78125 34.625 
Q 24.75 34.625 20.71875 30.859375 
Q 16.703125 27.09375 16.703125 20.515625 
Q 16.703125 13.921875 20.71875 10.15625 
Q 24.75 6.390625 31.78125 6.390625 
Q 38.8125 6.390625 42.859375 10.171875 
Q 46.921875 13.96875 46.921875 20.515625 
Q 46.921875 27.09375 42.890625 30.859375 
Q 38.875 34.625 31.78125 34.625 
z
M 21.921875 38.8125 
Q 15.578125 40.375 12.03125 44.71875 
Q 8.5 49.078125 8.5 55.328125 
Q 8.5 64.0625 14.71875 69.140625 
Q 20.953125 74.21875 31.78125 74.21875 
Q 42.671875 74.21875 48.875 69.140625 
Q 55.078125 64.0625 55.078125 55.328125 
Q 55.078125 49.078125 51.53125 44.71875 
Q 48 40.375 41.703125 38.8125 
Q 48.828125 37.15625 52.796875 32.3125 
Q 56.78125 27.484375 56.78125 20.515625 
Q 56.78125 9.90625 50.3125 4.234375 
Q 43.84375 -1.421875 31.78125 -1.421875 
Q 19.734375 -1.421875 13.25 4.234375 
Q 6.78125 9.90625 6.78125 20.515625 
Q 6.78125 27.484375 10.78125 32.3125 
Q 14.796875 37.15625 21.921875 38.8125 
z
M 18.3125 54.390625 
Q 18.3125 48.734375 21.84375 45.5625 
Q 25.390625 42.390625 31.78125 42.390625 
Q 38.140625 42.390625 41.71875 45.5625 
Q 45.3125 48.734375 45.3125 54.390625 
Q 45.3125 60.0625 41.71875 63.234375 
Q 38.140625 66.40625 31.78125 66.40625 
Q 25.390625 66.40625 21.84375 63.234375 
Q 18.3125 60.0625 18.3125 54.390625 
z
" id="DejaVuSans-56"/>
       <path d="M 37.109375 75.984375 
L 37.109375 68.5 
L 28.515625 68.5 
Q 23.6875 68.5 21.796875 66.546875 
Q 19.921875 64.59375 19.921875 59.515625 
L 19.921875 54.6875 
L 34.71875 54.6875 
L 34.71875 47.703125 
L 19.921875 47.703125 
L 19.921875 0 
L 10.890625 0 
L 10.890625 47.703125 
L 2.296875 47.703125 
L 2.296875 54.6875 
L 10.890625 54.6875 
L 10.890625 58.5 
Q 10.890625 67.625 15.140625 71.796875 
Q 19.390625 75.984375 28.609375 75.984375 
z
" id="DejaVuSans-102"/>
      </defs>
      <g transform="translate(154.988029 224.844352)rotate(-30)scale(0.08 -0.08)">
       <use xlink:href="#DejaVuSans-56"/>
       <use x="63.623047" xlink:href="#DejaVuSans-46"/>
       <use x="95.410156" xlink:href="#DejaVuSans-49"/>
       <use x="159.033203" xlink:href="#DejaVuSans-45"/>
       <use x="185.992188" xlink:href="#DejaVuSans-84"/>
       <use x="230.076172" xlink:href="#DejaVuSans-101"/>
       <use x="291.599609" xlink:href="#DejaVuSans-102"/>
       <use x="326.804688" xlink:href="#DejaVuSans-102"/>
      </g>
     </g>
    </g>
    <g id="xtick_10">
     <g id="line2d_10"/>
     <g id="text_10">
      <!-- 8.2-Tem -->
      <g transform="translate(169.317414 225.924352)rotate(-30)scale(0.08 -0.08)">
       <use xlink:href="#DejaVuSans-56"/>
       <use x="63.623047" xlink:href="#DejaVuSans-46"/>
       <use x="95.410156" xlink:href="#DejaVuSans-50"/>
       <use x="159.033203" xlink:href="#DejaVuSans-45"/>
       <use x="185.992188" xlink:href="#DejaVuSans-84"/>
       <use x="230.076172" xlink:href="#DejaVuSans-101"/>
       <use x="291.599609" xlink:href="#DejaVuSans-109"/>
      </g>
     </g>
    </g>
    <g id="xtick_11">
     <g id="line2d_11"/>
     <g id="text_11">
      <!-- 8.3a-Trm -->
      <g transform="translate(182.651953 227.578727)rotate(-30)scale(0.08 -0.08)">
       <use xlink:href="#DejaVuSans-56"/>
       <use x="63.623047" xlink:href="#DejaVuSans-46"/>
       <use x="95.410156" xlink:href="#DejaVuSans-51"/>
       <use x="159.033203" xlink:href="#DejaVuSans-97"/>
       <use x="220.3125" xlink:href="#DejaVuSans-45"/>
       <use x="247.271484" xlink:href="#DejaVuSans-84"/>
       <use x="293.605469" xlink:href="#DejaVuSans-114"/>
       <use x="332.96875" xlink:href="#DejaVuSans-109"/>
      </g>
     </g>
    </g>
    <g id="xtick_12">
     <g id="line2d_12"/>
     <g id="text_12">
      <!-- 8.3b-Trm -->
      <g transform="translate(198.699316 227.666852)rotate(-30)scale(0.08 -0.08)">
       <use xlink:href="#DejaVuSans-56"/>
       <use x="63.623047" xlink:href="#DejaVuSans-46"/>
       <use x="95.410156" xlink:href="#DejaVuSans-51"/>
       <use x="159.033203" xlink:href="#DejaVuSans-98"/>
       <use x="222.509766" xlink:href="#DejaVuSans-45"/>
       <use x="249.46875" xlink:href="#DejaVuSans-84"/>
       <use x="295.802734" xlink:href="#DejaVuSans-114"/>
       <use x="335.166016" xlink:href="#DejaVuSans-109"/>
      </g>
     </g>
    </g>
    <g id="xtick_13">
     <g id="line2d_13"/>
     <g id="text_13">
      <!-- 8.3c-Trm -->
      <defs>
       <path d="M 48.78125 52.59375 
L 48.78125 44.1875 
Q 44.96875 46.296875 41.140625 47.34375 
Q 37.3125 48.390625 33.40625 48.390625 
Q 24.65625 48.390625 19.8125 42.84375 
Q 14.984375 37.3125 14.984375 27.296875 
Q 14.984375 17.28125 19.8125 11.734375 
Q 24.65625 6.203125 33.40625 6.203125 
Q 37.3125 6.203125 41.140625 7.25 
Q 44.96875 8.296875 48.78125 10.40625 
L 48.78125 2.09375 
Q 45.015625 0.34375 40.984375 -0.53125 
Q 36.96875 -1.421875 32.421875 -1.421875 
Q 20.0625 -1.421875 12.78125 6.34375 
Q 5.515625 14.109375 5.515625 27.296875 
Q 5.515625 40.671875 12.859375 48.328125 
Q 20.21875 56 33.015625 56 
Q 37.15625 56 41.109375 55.140625 
Q 45.0625 54.296875 48.78125 52.59375 
z
" id="DejaVuSans-99"/>
      </defs>
      <g transform="translate(215.488213 227.326852)rotate(-30)scale(0.08 -0.08)">
       <use xlink:href="#DejaVuSans-56"/>
       <use x="63.623047" xlink:href="#DejaVuSans-46"/>
       <use x="95.410156" xlink:href="#DejaVuSans-51"/>
       <use x="159.033203" xlink:href="#DejaVuSans-99"/>
       <use x="214.013672" xlink:href="#DejaVuSans-45"/>
       <use x="240.972656" xlink:href="#DejaVuSans-84"/>
       <use x="287.306641" xlink:href="#DejaVuSans-114"/>
       <use x="326.669922" xlink:href="#DejaVuSans-109"/>
      </g>
     </g>
    </g>
    <g id="xtick_14">
     <g id="line2d_14"/>
     <g id="text_14">
      <!-- 8.4-Chrom -->
      <defs>
       <path d="M 54.890625 33.015625 
L 54.890625 0 
L 45.90625 0 
L 45.90625 32.71875 
Q 45.90625 40.484375 42.875 44.328125 
Q 39.84375 48.1875 33.796875 48.1875 
Q 26.515625 48.1875 22.3125 43.546875 
Q 18.109375 38.921875 18.109375 30.90625 
L 18.109375 0 
L 9.078125 0 
L 9.078125 75.984375 
L 18.109375 75.984375 
L 18.109375 46.1875 
Q 21.34375 51.125 25.703125 53.5625 
Q 30.078125 56 35.796875 56 
Q 45.21875 56 50.046875 50.171875 
Q 54.890625 44.34375 54.890625 33.015625 
z
" id="DejaVuSans-104"/>
       <path d="M 30.609375 48.390625 
Q 23.390625 48.390625 19.1875 42.75 
Q 14.984375 37.109375 14.984375 27.296875 
Q 14.984375 17.484375 19.15625 11.84375 
Q 23.34375 6.203125 30.609375 6.203125 
Q 37.796875 6.203125 41.984375 11.859375 
Q 46.1875 17.53125 46.1875 27.296875 
Q 46.1875 37.015625 41.984375 42.703125 
Q 37.796875 48.390625 30.609375 48.390625 
z
M 30.609375 56 
Q 42.328125 56 49.015625 48.375 
Q 55.71875 40.765625 55.71875 27.296875 
Q 55.71875 13.875 49.015625 6.21875 
Q 42.328125 -1.421875 30.609375 -1.421875 
Q 18.84375 -1.421875 12.171875 6.21875 
Q 5.515625 13.875 5.515625 27.296875 
Q 5.515625 40.765625 12.171875 48.375 
Q 18.84375 56 30.609375 56 
z
" id="DejaVuSans-111"/>
      </defs>
      <g transform="translate(224.642014 231.394977)rotate(-30)scale(0.08 -0.08)">
       <use xlink:href="#DejaVuSans-56"/>
       <use x="63.623047" xlink:href="#DejaVuSans-46"/>
       <use x="95.410156" xlink:href="#DejaVuSans-52"/>
       <use x="159.033203" xlink:href="#DejaVuSans-45"/>
       <use x="195.117188" xlink:href="#DejaVuSans-67"/>
       <use x="264.941406" xlink:href="#DejaVuSans-104"/>
       <use x="328.320312" xlink:href="#DejaVuSans-114"/>
       <use x="367.183594" xlink:href="#DejaVuSans-111"/>
       <use x="428.365234" xlink:href="#DejaVuSans-109"/>
      </g>
     </g>
    </g>
    <g id="xtick_15">
     <g id="line2d_15"/>
     <g id="text_15">
      <!-- 8.5-Mitosis -->
      <defs>
       <path d="M 9.421875 54.6875 
L 18.40625 54.6875 
L 18.40625 0 
L 9.421875 0 
z
M 9.421875 75.984375 
L 18.40625 75.984375 
L 18.40625 64.59375 
L 9.421875 64.59375 
z
" id="DejaVuSans-105"/>
       <path d="M 18.3125 70.21875 
L 18.3125 54.6875 
L 36.8125 54.6875 
L 36.8125 47.703125 
L 18.3125 47.703125 
L 18.3125 18.015625 
Q 18.3125 11.328125 20.140625 9.421875 
Q 21.96875 7.515625 27.59375 7.515625 
L 36.8125 7.515625 
L 36.8125 0 
L 27.59375 0 
Q 17.1875 0 13.234375 3.875 
Q 9.28125 7.765625 9.28125 18.015625 
L 9.28125 47.703125 
L 2.6875 47.703125 
L 2.6875 54.6875 
L 9.28125 54.6875 
L 9.28125 70.21875 
z
" id="DejaVuSans-116"/>
       <path d="M 44.28125 53.078125 
L 44.28125 44.578125 
Q 40.484375 46.53125 36.375 47.5 
Q 32.28125 48.484375 27.875 48.484375 
Q 21.1875 48.484375 17.84375 46.4375 
Q 14.5 44.390625 14.5 40.28125 
Q 14.5 37.15625 16.890625 35.375 
Q 19.28125 33.59375 26.515625 31.984375 
L 29.59375 31.296875 
Q 39.15625 29.25 43.1875 25.515625 
Q 47.21875 21.78125 47.21875 15.09375 
Q 47.21875 7.46875 41.1875 3.015625 
Q 35.15625 -1.421875 24.609375 -1.421875 
Q 20.21875 -1.421875 15.453125 -0.5625 
Q 10.6875 0.296875 5.421875 2 
L 5.421875 11.28125 
Q 10.40625 8.6875 15.234375 7.390625 
Q 20.0625 6.109375 24.8125 6.109375 
Q 31.15625 6.109375 34.5625 8.28125 
Q 37.984375 10.453125 37.984375 14.40625 
Q 37.984375 18.0625 35.515625 20.015625 
Q 33.0625 21.96875 24.703125 23.78125 
L 21.578125 24.515625 
Q 13.234375 26.265625 9.515625 29.90625 
Q 5.8125 33.546875 5.8125 39.890625 
Q 5.8125 47.609375 11.28125 51.796875 
Q 16.75 56 26.8125 56 
Q 31.78125 56 36.171875 55.265625 
Q 40.578125 54.546875 44.28125 53.078125 
z
" id="DejaVuSans-115"/>
      </defs>
      <g transform="translate(239.749739 232.025602)rotate(-30)scale(0.08 -0.08)">
       <use xlink:href="#DejaVuSans-56"/>
       <use x="63.623047" xlink:href="#DejaVuSans-46"/>
       <use x="95.410156" xlink:href="#DejaVuSans-53"/>
       <use x="159.033203" xlink:href="#DejaVuSans-45"/>
       <use x="195.117188" xlink:href="#DejaVuSans-77"/>
       <use x="281.396484" xlink:href="#DejaVuSans-105"/>
       <use x="309.179688" xlink:href="#DejaVuSans-116"/>
       <use x="348.388672" xlink:href="#DejaVuSans-111"/>
       <use x="409.570312" xlink:href="#DejaVuSans-115"/>
       <use x="461.669922" xlink:href="#DejaVuSans-105"/>
       <use x="489.453125" xlink:href="#DejaVuSans-115"/>
      </g>
     </g>
    </g>
    <g id="xtick_16">
     <g id="line2d_16"/>
     <g id="text_16">
      <!-- 8.6-KLRB1 -->
      <defs>
       <path d="M 9.8125 72.90625 
L 19.671875 72.90625 
L 19.671875 42.09375 
L 52.390625 72.90625 
L 65.09375 72.90625 
L 28.90625 38.921875 
L 67.671875 0 
L 54.6875 0 
L 19.671875 35.109375 
L 19.671875 0 
L 9.8125 0 
z
" id="DejaVuSans-75"/>
       <path d="M 19.671875 34.8125 
L 19.671875 8.109375 
L 35.5 8.109375 
Q 43.453125 8.109375 47.28125 11.40625 
Q 51.125 14.703125 51.125 21.484375 
Q 51.125 28.328125 47.28125 31.5625 
Q 43.453125 34.8125 35.5 34.8125 
z
M 19.671875 64.796875 
L 19.671875 42.828125 
L 34.28125 42.828125 
Q 41.5 42.828125 45.03125 45.53125 
Q 48.578125 48.25 48.578125 53.8125 
Q 48.578125 59.328125 45.03125 62.0625 
Q 41.5 64.796875 34.28125 64.796875 
z
M 9.8125 72.90625 
L 35.015625 72.90625 
Q 46.296875 72.90625 52.390625 68.21875 
Q 58.5 63.53125 58.5 54.890625 
Q 58.5 48.1875 55.375 44.234375 
Q 52.25 40.28125 46.1875 39.3125 
Q 53.46875 37.75 57.5 32.78125 
Q 61.53125 27.828125 61.53125 20.40625 
Q 61.53125 10.640625 54.890625 5.3125 
Q 48.25 0 35.984375 0 
L 9.8125 0 
z
" id="DejaVuSans-66"/>
      </defs>
      <g transform="translate(257.571372 231.089352)rotate(-30)scale(0.08 -0.08)">
       <use xlink:href="#DejaVuSans-56"/>
       <use x="63.623047" xlink:href="#DejaVuSans-46"/>
       <use x="95.410156" xlink:href="#DejaVuSans-54"/>
       <use x="159.033203" xlink:href="#DejaVuSans-45"/>
       <use x="195.117188" xlink:href="#DejaVuSans-75"/>
       <use x="260.693359" xlink:href="#DejaVuSans-76"/>
       <use x="316.40625" xlink:href="#DejaVuSans-82"/>
       <use x="385.888672" xlink:href="#DejaVuSans-66"/>
       <use x="454.492188" xlink:href="#DejaVuSans-49"/>
      </g>
     </g>
    </g>
    <g id="text_17">
     <!-- cluster -->
     <defs>
      <path d="M 9.421875 75.984375 
L 18.40625 75.984375 
L 18.40625 0 
L 9.421875 0 
z
" id="DejaVuSans-108"/>
      <path d="M 8.5 21.578125 
L 8.5 54.6875 
L 17.484375 54.6875 
L 17.484375 21.921875 
Q 17.484375 14.15625 20.5 10.265625 
Q 23.53125 6.390625 29.59375 6.390625 
Q 36.859375 6.390625 41.078125 11.03125 
Q 45.3125 15.671875 45.3125 23.6875 
L 45.3125 54.6875 
L 54.296875 54.6875 
L 54.296875 0 
L 45.3125 0 
L 45.3125 8.40625 
Q 42.046875 3.421875 37.71875 1 
Q 33.40625 -1.421875 27.6875 -1.421875 
Q 18.265625 -1.421875 13.375 4.4375 
Q 8.5 10.296875 8.5 21.578125 
z
M 31.109375 56 
z
" id="DejaVuSans-117"/>
     </defs>
     <g transform="translate(159.196875 243.545202)scale(0.08 -0.08)">
      <use xlink:href="#DejaVuSans-99"/>
      <use x="54.980469" xlink:href="#DejaVuSans-108"/>
      <use x="82.763672" xlink:href="#DejaVuSans-117"/>
      <use x="146.142578" xlink:href="#DejaVuSans-115"/>
      <use x="198.242188" xlink:href="#DejaVuSans-116"/>
      <use x="237.451172" xlink:href="#DejaVuSans-101"/>
      <use x="298.974609" xlink:href="#DejaVuSans-114"/>
     </g>
    </g>
   </g>
   <g id="matplotlib.axis_2">
    <g id="ytick_1">
     <g id="line2d_17">
      <defs>
       <path d="M 0 0 
L -3.5 0 
" id="m108500ec11" style="stroke:#000000;stroke-width:0.8;"/>
      </defs>
      <g>
       <use style="stroke:#000000;stroke-width:0.8;" x="43.2" xlink:href="#m108500ec11" y="201.6"/>
      </g>
     </g>
     <g id="text_18">
      <!-- 0 -->
      <defs>
       <path d="M 31.78125 66.40625 
Q 24.171875 66.40625 20.328125 58.90625 
Q 16.5 51.421875 16.5 36.375 
Q 16.5 21.390625 20.328125 13.890625 
Q 24.171875 6.390625 31.78125 6.390625 
Q 39.453125 6.390625 43.28125 13.890625 
Q 47.125 21.390625 47.125 36.375 
Q 47.125 51.421875 43.28125 58.90625 
Q 39.453125 66.40625 31.78125 66.40625 
z
M 31.78125 74.21875 
Q 44.046875 74.21875 50.515625 64.515625 
Q 56.984375 54.828125 56.984375 36.375 
Q 56.984375 17.96875 50.515625 8.265625 
Q 44.046875 -1.421875 31.78125 -1.421875 
Q 19.53125 -1.421875 13.0625 8.265625 
Q 6.59375 17.96875 6.59375 36.375 
Q 6.59375 54.828125 13.0625 64.515625 
Q 19.53125 74.21875 31.78125 74.21875 
z
" id="DejaVuSans-48"/>
      </defs>
      <g transform="translate(29.8375 205.399219)scale(0.1 -0.1)">
       <use xlink:href="#DejaVuSans-48"/>
      </g>
     </g>
    </g>
    <g id="ytick_2">
     <g id="line2d_18">
      <g>
       <use style="stroke:#000000;stroke-width:0.8;" x="43.2" xlink:href="#m108500ec11" y="177.203276"/>
      </g>
     </g>
     <g id="text_19">
      <!-- 2000 -->
      <g transform="translate(10.75 181.002495)scale(0.1 -0.1)">
       <use xlink:href="#DejaVuSans-50"/>
       <use x="63.623047" xlink:href="#DejaVuSans-48"/>
       <use x="127.246094" xlink:href="#DejaVuSans-48"/>
       <use x="190.869141" xlink:href="#DejaVuSans-48"/>
      </g>
     </g>
    </g>
    <g id="ytick_3">
     <g id="line2d_19">
      <g>
       <use style="stroke:#000000;stroke-width:0.8;" x="43.2" xlink:href="#m108500ec11" y="152.806552"/>
      </g>
     </g>
     <g id="text_20">
      <!-- 4000 -->
      <g transform="translate(10.75 156.605771)scale(0.1 -0.1)">
       <use xlink:href="#DejaVuSans-52"/>
       <use x="63.623047" xlink:href="#DejaVuSans-48"/>
       <use x="127.246094" xlink:href="#DejaVuSans-48"/>
       <use x="190.869141" xlink:href="#DejaVuSans-48"/>
      </g>
     </g>
    </g>
    <g id="ytick_4">
     <g id="line2d_20">
      <g>
       <use style="stroke:#000000;stroke-width:0.8;" x="43.2" xlink:href="#m108500ec11" y="128.409828"/>
      </g>
     </g>
     <g id="text_21">
      <!-- 6000 -->
      <g transform="translate(10.75 132.209047)scale(0.1 -0.1)">
       <use xlink:href="#DejaVuSans-54"/>
       <use x="63.623047" xlink:href="#DejaVuSans-48"/>
       <use x="127.246094" xlink:href="#DejaVuSans-48"/>
       <use x="190.869141" xlink:href="#DejaVuSans-48"/>
      </g>
     </g>
    </g>
    <g id="ytick_5">
     <g id="line2d_21">
      <g>
       <use style="stroke:#000000;stroke-width:0.8;" x="43.2" xlink:href="#m108500ec11" y="104.013104"/>
      </g>
     </g>
     <g id="text_22">
      <!-- 8000 -->
      <g transform="translate(10.75 107.812323)scale(0.1 -0.1)">
       <use xlink:href="#DejaVuSans-56"/>
       <use x="63.623047" xlink:href="#DejaVuSans-48"/>
       <use x="127.246094" xlink:href="#DejaVuSans-48"/>
       <use x="190.869141" xlink:href="#DejaVuSans-48"/>
      </g>
     </g>
    </g>
    <g id="ytick_6">
     <g id="line2d_22">
      <g>
       <use style="stroke:#000000;stroke-width:0.8;" x="43.2" xlink:href="#m108500ec11" y="79.61638"/>
      </g>
     </g>
     <g id="text_23">
      <!-- 10000 -->
      <g transform="translate(4.3875 83.415599)scale(0.1 -0.1)">
       <use xlink:href="#DejaVuSans-49"/>
       <use x="63.623047" xlink:href="#DejaVuSans-48"/>
       <use x="127.246094" xlink:href="#DejaVuSans-48"/>
       <use x="190.869141" xlink:href="#DejaVuSans-48"/>
       <use x="254.492188" xlink:href="#DejaVuSans-48"/>
      </g>
     </g>
    </g>
    <g id="ytick_7">
     <g id="line2d_23">
      <g>
       <use style="stroke:#000000;stroke-width:0.8;" x="43.2" xlink:href="#m108500ec11" y="55.219656"/>
      </g>
     </g>
     <g id="text_24">
      <!-- 12000 -->
      <g transform="translate(4.3875 59.018875)scale(0.1 -0.1)">
       <use xlink:href="#DejaVuSans-49"/>
       <use x="63.623047" xlink:href="#DejaVuSans-50"/>
       <use x="127.246094" xlink:href="#DejaVuSans-48"/>
       <use x="190.869141" xlink:href="#DejaVuSans-48"/>
       <use x="254.492188" xlink:href="#DejaVuSans-48"/>
      </g>
     </g>
    </g>
    <g id="text_25">
     <!-- Number of cells -->
     <defs>
      <path d="M 9.8125 72.90625 
L 23.09375 72.90625 
L 55.421875 11.921875 
L 55.421875 72.90625 
L 64.984375 72.90625 
L 64.984375 0 
L 51.703125 0 
L 19.390625 60.984375 
L 19.390625 0 
L 9.8125 0 
z
" id="DejaVuSans-78"/>
      <path id="DejaVuSans-32"/>
     </defs>
     <g transform="translate(-1.27625 153.83375)rotate(-90)scale(0.08 -0.08)">
      <use xlink:href="#DejaVuSans-78"/>
      <use x="74.804688" xlink:href="#DejaVuSans-117"/>
      <use x="138.183594" xlink:href="#DejaVuSans-109"/>
      <use x="235.595703" xlink:href="#DejaVuSans-98"/>
      <use x="299.072266" xlink:href="#DejaVuSans-101"/>
      <use x="360.595703" xlink:href="#DejaVuSans-114"/>
      <use x="401.708984" xlink:href="#DejaVuSans-32"/>
      <use x="433.496094" xlink:href="#DejaVuSans-111"/>
      <use x="494.677734" xlink:href="#DejaVuSans-102"/>
      <use x="529.882812" xlink:href="#DejaVuSans-32"/>
      <use x="561.669922" xlink:href="#DejaVuSans-99"/>
      <use x="616.650391" xlink:href="#DejaVuSans-101"/>
      <use x="678.173828" xlink:href="#DejaVuSans-108"/>
      <use x="705.957031" xlink:href="#DejaVuSans-108"/>
      <use x="733.740234" xlink:href="#DejaVuSans-115"/>
     </g>
    </g>
   </g>
   <g id="patch_115">
    <path d="M 43.2 201.6 
L 43.2 43.2 
" style="fill:none;stroke:#000000;stroke-linecap:square;stroke-linejoin:miter;stroke-width:0.8;"/>
   </g>
   <g id="patch_116">
    <path d="M 43.2 201.6 
L 302.4 201.6 
" style="fill:none;stroke:#000000;stroke-linecap:square;stroke-linejoin:miter;stroke-width:0.8;"/>
   </g>
   <g id="legend_1">
    <g id="patch_117">
     <path d="M 361.44 56.47875 
L 377.44 56.47875 
L 377.44 50.87875 
L 361.44 50.87875 
z
" style="fill:#9458a2;"/>
    </g>
    <g id="text_26">
     <!-- Dual expanded -->
     <defs>
      <path d="M 19.671875 64.796875 
L 19.671875 8.109375 
L 31.59375 8.109375 
Q 46.6875 8.109375 53.6875 14.9375 
Q 60.6875 21.78125 60.6875 36.53125 
Q 60.6875 51.171875 53.6875 57.984375 
Q 46.6875 64.796875 31.59375 64.796875 
z
M 9.8125 72.90625 
L 30.078125 72.90625 
Q 51.265625 72.90625 61.171875 64.09375 
Q 71.09375 55.28125 71.09375 36.53125 
Q 71.09375 17.671875 61.125 8.828125 
Q 51.171875 0 30.078125 0 
L 9.8125 0 
z
" id="DejaVuSans-68"/>
      <path d="M 54.890625 54.6875 
L 35.109375 28.078125 
L 55.90625 0 
L 45.3125 0 
L 29.390625 21.484375 
L 13.484375 0 
L 2.875 0 
L 24.125 28.609375 
L 4.6875 54.6875 
L 15.28125 54.6875 
L 29.78125 35.203125 
L 44.28125 54.6875 
z
" id="DejaVuSans-120"/>
      <path d="M 18.109375 8.203125 
L 18.109375 -20.796875 
L 9.078125 -20.796875 
L 9.078125 54.6875 
L 18.109375 54.6875 
L 18.109375 46.390625 
Q 20.953125 51.265625 25.265625 53.625 
Q 29.59375 56 35.59375 56 
Q 45.5625 56 51.78125 48.09375 
Q 58.015625 40.1875 58.015625 27.296875 
Q 58.015625 14.40625 51.78125 6.484375 
Q 45.5625 -1.421875 35.59375 -1.421875 
Q 29.59375 -1.421875 25.265625 0.953125 
Q 20.953125 3.328125 18.109375 8.203125 
z
M 48.6875 27.296875 
Q 48.6875 37.203125 44.609375 42.84375 
Q 40.53125 48.484375 33.40625 48.484375 
Q 26.265625 48.484375 22.1875 42.84375 
Q 18.109375 37.203125 18.109375 27.296875 
Q 18.109375 17.390625 22.1875 11.75 
Q 26.265625 6.109375 33.40625 6.109375 
Q 40.53125 6.109375 44.609375 11.75 
Q 48.6875 17.390625 48.6875 27.296875 
z
" id="DejaVuSans-112"/>
      <path d="M 54.890625 33.015625 
L 54.890625 0 
L 45.90625 0 
L 45.90625 32.71875 
Q 45.90625 40.484375 42.875 44.328125 
Q 39.84375 48.1875 33.796875 48.1875 
Q 26.515625 48.1875 22.3125 43.546875 
Q 18.109375 38.921875 18.109375 30.90625 
L 18.109375 0 
L 9.078125 0 
L 9.078125 54.6875 
L 18.109375 54.6875 
L 18.109375 46.1875 
Q 21.34375 51.125 25.703125 53.5625 
Q 30.078125 56 35.796875 56 
Q 45.21875 56 50.046875 50.171875 
Q 54.890625 44.34375 54.890625 33.015625 
z
" id="DejaVuSans-110"/>
      <path d="M 45.40625 46.390625 
L 45.40625 75.984375 
L 54.390625 75.984375 
L 54.390625 0 
L 45.40625 0 
L 45.40625 8.203125 
Q 42.578125 3.328125 38.25 0.953125 
Q 33.9375 -1.421875 27.875 -1.421875 
Q 17.96875 -1.421875 11.734375 6.484375 
Q 5.515625 14.40625 5.515625 27.296875 
Q 5.515625 40.1875 11.734375 48.09375 
Q 17.96875 56 27.875 56 
Q 33.9375 56 38.25 53.625 
Q 42.578125 51.265625 45.40625 46.390625 
z
M 14.796875 27.296875 
Q 14.796875 17.390625 18.875 11.75 
Q 22.953125 6.109375 30.078125 6.109375 
Q 37.203125 6.109375 41.296875 11.75 
Q 45.40625 17.390625 45.40625 27.296875 
Q 45.40625 37.203125 41.296875 42.84375 
Q 37.203125 48.484375 30.078125 48.484375 
Q 22.953125 48.484375 18.875 42.84375 
Q 14.796875 37.203125 14.796875 27.296875 
z
" id="DejaVuSans-100"/>
     </defs>
     <g transform="translate(383.84 56.47875)scale(0.08 -0.08)">
      <use xlink:href="#DejaVuSans-68"/>
      <use x="77.001953" xlink:href="#DejaVuSans-117"/>
      <use x="140.380859" xlink:href="#DejaVuSans-97"/>
      <use x="201.660156" xlink:href="#DejaVuSans-108"/>
      <use x="229.443359" xlink:href="#DejaVuSans-32"/>
      <use x="261.230469" xlink:href="#DejaVuSans-101"/>
      <use x="321.003906" xlink:href="#DejaVuSans-120"/>
      <use x="380.183594" xlink:href="#DejaVuSans-112"/>
      <use x="443.660156" xlink:href="#DejaVuSans-97"/>
      <use x="504.939453" xlink:href="#DejaVuSans-110"/>
      <use x="568.318359" xlink:href="#DejaVuSans-100"/>
      <use x="631.794922" xlink:href="#DejaVuSans-101"/>
      <use x="693.318359" xlink:href="#DejaVuSans-100"/>
     </g>
    </g>
    <g id="patch_118">
     <path d="M 361.44 68.22125 
L 377.44 68.22125 
L 377.44 62.62125 
L 361.44 62.62125 
z
" style="fill:#ff8000;"/>
    </g>
    <g id="text_27">
     <!-- Tumor singleton -->
     <g transform="translate(383.84 68.22125)scale(0.08 -0.08)">
      <use xlink:href="#DejaVuSans-84"/>
      <use x="45.958984" xlink:href="#DejaVuSans-117"/>
      <use x="109.337891" xlink:href="#DejaVuSans-109"/>
      <use x="206.75" xlink:href="#DejaVuSans-111"/>
      <use x="267.931641" xlink:href="#DejaVuSans-114"/>
      <use x="309.044922" xlink:href="#DejaVuSans-32"/>
      <use x="340.832031" xlink:href="#DejaVuSans-115"/>
      <use x="392.931641" xlink:href="#DejaVuSans-105"/>
      <use x="420.714844" xlink:href="#DejaVuSans-110"/>
      <use x="484.09375" xlink:href="#DejaVuSans-103"/>
      <use x="547.570312" xlink:href="#DejaVuSans-108"/>
      <use x="575.353516" xlink:href="#DejaVuSans-101"/>
      <use x="636.876953" xlink:href="#DejaVuSans-116"/>
      <use x="676.085938" xlink:href="#DejaVuSans-111"/>
      <use x="737.267578" xlink:href="#DejaVuSans-110"/>
     </g>
    </g>
    <g id="patch_119">
     <path d="M 361.44 79.96375 
L 377.44 79.96375 
L 377.44 74.36375 
L 361.44 74.36375 
z
" style="fill:#f7f719;"/>
    </g>
    <g id="text_28">
     <!-- NAT singleton -->
     <defs>
      <path d="M 34.1875 63.1875 
L 20.796875 26.90625 
L 47.609375 26.90625 
z
M 28.609375 72.90625 
L 39.796875 72.90625 
L 67.578125 0 
L 57.328125 0 
L 50.6875 18.703125 
L 17.828125 18.703125 
L 11.1875 0 
L 0.78125 0 
z
" id="DejaVuSans-65"/>
     </defs>
     <g transform="translate(383.84 79.96375)scale(0.08 -0.08)">
      <use xlink:href="#DejaVuSans-78"/>
      <use x="74.804688" xlink:href="#DejaVuSans-65"/>
      <use x="135.462891" xlink:href="#DejaVuSans-84"/>
      <use x="196.546875" xlink:href="#DejaVuSans-32"/>
      <use x="228.333984" xlink:href="#DejaVuSans-115"/>
      <use x="280.433594" xlink:href="#DejaVuSans-105"/>
      <use x="308.216797" xlink:href="#DejaVuSans-110"/>
      <use x="371.595703" xlink:href="#DejaVuSans-103"/>
      <use x="435.072266" xlink:href="#DejaVuSans-108"/>
      <use x="462.855469" xlink:href="#DejaVuSans-101"/>
      <use x="524.378906" xlink:href="#DejaVuSans-116"/>
      <use x="563.587891" xlink:href="#DejaVuSans-111"/>
      <use x="624.769531" xlink:href="#DejaVuSans-110"/>
     </g>
    </g>
    <g id="patch_120">
     <path d="M 361.44 91.70625 
L 377.44 91.70625 
L 377.44 86.10625 
L 361.44 86.10625 
z
" style="fill:#eeb3cb;"/>
    </g>
    <g id="text_29">
     <!-- Tumor multiplet -->
     <g transform="translate(383.84 91.70625)scale(0.08 -0.08)">
      <use xlink:href="#DejaVuSans-84"/>
      <use x="45.958984" xlink:href="#DejaVuSans-117"/>
      <use x="109.337891" xlink:href="#DejaVuSans-109"/>
      <use x="206.75" xlink:href="#DejaVuSans-111"/>
      <use x="267.931641" xlink:href="#DejaVuSans-114"/>
      <use x="309.044922" xlink:href="#DejaVuSans-32"/>
      <use x="340.832031" xlink:href="#DejaVuSans-109"/>
      <use x="438.244141" xlink:href="#DejaVuSans-117"/>
      <use x="501.623047" xlink:href="#DejaVuSans-108"/>
      <use x="529.40625" xlink:href="#DejaVuSans-116"/>
      <use x="568.615234" xlink:href="#DejaVuSans-105"/>
      <use x="596.398438" xlink:href="#DejaVuSans-112"/>
      <use x="659.875" xlink:href="#DejaVuSans-108"/>
      <use x="687.658203" xlink:href="#DejaVuSans-101"/>
      <use x="749.181641" xlink:href="#DejaVuSans-116"/>
     </g>
    </g>
    <g id="patch_121">
     <path d="M 361.44 103.44875 
L 377.44 103.44875 
L 377.44 97.84875 
L 361.44 97.84875 
z
" style="fill:#9cd0de;"/>
    </g>
    <g id="text_30">
     <!-- NAT multiplet -->
     <g transform="translate(383.84 103.44875)scale(0.08 -0.08)">
      <use xlink:href="#DejaVuSans-78"/>
      <use x="74.804688" xlink:href="#DejaVuSans-65"/>
      <use x="135.462891" xlink:href="#DejaVuSans-84"/>
      <use x="196.546875" xlink:href="#DejaVuSans-32"/>
      <use x="228.333984" xlink:href="#DejaVuSans-109"/>
      <use x="325.746094" xlink:href="#DejaVuSans-117"/>
      <use x="389.125" xlink:href="#DejaVuSans-108"/>
      <use x="416.908203" xlink:href="#DejaVuSans-116"/>
      <use x="456.117188" xlink:href="#DejaVuSans-105"/>
      <use x="483.900391" xlink:href="#DejaVuSans-112"/>
      <use x="547.376953" xlink:href="#DejaVuSans-108"/>
      <use x="575.160156" xlink:href="#DejaVuSans-101"/>
      <use x="636.683594" xlink:href="#DejaVuSans-116"/>
     </g>
    </g>
    <g id="patch_122">
     <path d="M 361.44 115.19125 
L 377.44 115.19125 
L 377.44 109.59125 
L 361.44 109.59125 
z
" style="fill:#cce70b;"/>
    </g>
    <g id="text_31">
     <!-- Blood singleton -->
     <g transform="translate(383.84 115.19125)scale(0.08 -0.08)">
      <use xlink:href="#DejaVuSans-66"/>
      <use x="68.603516" xlink:href="#DejaVuSans-108"/>
      <use x="96.386719" xlink:href="#DejaVuSans-111"/>
      <use x="157.568359" xlink:href="#DejaVuSans-111"/>
      <use x="218.75" xlink:href="#DejaVuSans-100"/>
      <use x="282.226562" xlink:href="#DejaVuSans-32"/>
      <use x="314.013672" xlink:href="#DejaVuSans-115"/>
      <use x="366.113281" xlink:href="#DejaVuSans-105"/>
      <use x="393.896484" xlink:href="#DejaVuSans-110"/>
      <use x="457.275391" xlink:href="#DejaVuSans-103"/>
      <use x="520.751953" xlink:href="#DejaVuSans-108"/>
      <use x="548.535156" xlink:href="#DejaVuSans-101"/>
      <use x="610.058594" xlink:href="#DejaVuSans-116"/>
      <use x="649.267578" xlink:href="#DejaVuSans-111"/>
      <use x="710.449219" xlink:href="#DejaVuSans-110"/>
     </g>
    </g>
    <g id="patch_123">
     <path d="M 361.44 126.93375 
L 377.44 126.93375 
L 377.44 121.33375 
L 361.44 121.33375 
z
" style="fill:#beac83;"/>
    </g>
    <g id="text_32">
     <!-- Blood multiplet -->
     <g transform="translate(383.84 126.93375)scale(0.08 -0.08)">
      <use xlink:href="#DejaVuSans-66"/>
      <use x="68.603516" xlink:href="#DejaVuSans-108"/>
      <use x="96.386719" xlink:href="#DejaVuSans-111"/>
      <use x="157.568359" xlink:href="#DejaVuSans-111"/>
      <use x="218.75" xlink:href="#DejaVuSans-100"/>
      <use x="282.226562" xlink:href="#DejaVuSans-32"/>
      <use x="314.013672" xlink:href="#DejaVuSans-109"/>
      <use x="411.425781" xlink:href="#DejaVuSans-117"/>
      <use x="474.804688" xlink:href="#DejaVuSans-108"/>
      <use x="502.587891" xlink:href="#DejaVuSans-116"/>
      <use x="541.796875" xlink:href="#DejaVuSans-105"/>
      <use x="569.580078" xlink:href="#DejaVuSans-112"/>
      <use x="633.056641" xlink:href="#DejaVuSans-108"/>
      <use x="660.839844" xlink:href="#DejaVuSans-101"/>
      <use x="722.363281" xlink:href="#DejaVuSans-116"/>
     </g>
    </g>
   </g>
  </g>
 </g>
 <defs>
  <clipPath id="pb2ccb05c41">
   <rect height="158.4" width="259.2" x="43.2" y="43.2"/>
  </clipPath>
 </defs>
</svg>
